<svg width="322" height="209" viewBox="0 0 322 209" fill="none" xmlns="http://www.w3.org/2000/svg">
<rect x="1.10547" y="1.12109" width="320.23" height="207.112" fill="white" stroke="#DFDCD8"/>
<line x1="0.839844" y1="32.8516" x2="321.835" y2="32.8516" stroke="#EAEAFF"/>
<rect x="13.2031" y="42.9062" width="295.912" height="157.846" fill="white" stroke="#EAEAFF"/>
<rect x="21.8984" y="58.3125" width="74.2157" height="53.805" rx="1.5" fill="#EAEAFF" stroke="#A09FFA"/>
<rect x="25.7227" y="79.8477" width="13.843" height="2.85069" fill="#A09FFA"/>
<rect x="43.0977" y="79.8477" width="13.843" height="2.85069" fill="#A09FFA"/>
<rect x="60.4688" y="79.8477" width="13.843" height="2.85069" fill="#A09FFA"/>
<rect x="77.8438" y="79.8477" width="13.843" height="2.85069" fill="#A09FFA"/>
<rect opacity="0.2" x="25.7227" y="95.7656" width="18.5108" height="2.44128" fill="#A09FFA"/>
<rect opacity="0.2" x="73.1758" y="95.7656" width="18.5108" height="2.44128" fill="#A09FFA"/>
<rect opacity="0.2" x="25.7227" y="99.8984" width="18.5108" height="2.44128" fill="#A09FFA"/>
<rect opacity="0.2" x="73.1758" y="99.8984" width="18.5108" height="2.44128" fill="#A09FFA"/>
<rect x="102.859" y="58.4023" width="76.9919" height="15.848" fill="#EAEAFF"/>
<rect x="102.859" y="81.2734" width="194.239" height="11.3572" fill="#EAEAFF"/>
<rect x="102.859" y="101.117" width="133.49" height="11.3572" fill="#EAEAFF"/>
<rect opacity="0.1" x="21.3984" y="126.207" width="275.702" height="11.0129" fill="#A09FFA"/>
<rect opacity="0.1" x="21.3984" y="146.617" width="275.702" height="11.0129" fill="#A09FFA"/>
<rect opacity="0.1" x="21.3984" y="167.027" width="275.702" height="11.0129" fill="#A09FFA"/>
<circle cx="15.946" cy="16.5359" r="3.2273" fill="#EAEAFF"/>
<circle cx="24.2" cy="16.5359" r="3.2273" fill="#EAEAFF"/>
<circle cx="32.4539" cy="16.5359" r="3.2273" fill="#EAEAFF"/>
<circle opacity="0.8" cx="30.0843" cy="67.8499" r="4.36161" fill="#A09FFA"/>
<circle opacity="0.2" cx="34.4436" cy="67.8499" r="4.36161" fill="#A09FFA"/>
</svg>
