<svg width="322" height="209" viewBox="0 0 322 209" fill="none" xmlns="http://www.w3.org/2000/svg">
<path d="M0.277344 5.62109C0.277344 2.99774 2.40399 0.871094 5.02734 0.871094H316.417C319.041 0.871094 321.167 2.99774 321.167 5.62109V42.5048H0.277344V5.62109Z" fill="white" stroke="#A09FFA" stroke-width="0.5"/>
<rect x="35.5117" y="11.8359" width="153.437" height="7.19447" fill="#EAEAFF"/>
<rect x="35.5117" y="22.4844" width="84.6515" height="7.19447" fill="#EAEAFF"/>
<rect x="256.523" y="11.8359" width="56.2062" height="17.8439" fill="#A09FFA"/>
<rect x="9.47656" y="11.8359" width="19.028" height="17.8439" fill="#A09FFA"/>
<line x1="198.875" y1="29.4297" x2="246.382" y2="29.4297" stroke="#A09FFA" stroke-width="0.5"/>
<rect x="0.527344" y="43.25" width="320.39" height="164.983" fill="white" stroke="#DFDCD8"/>
<rect x="12.0156" y="55.8242" width="295.731" height="8.84429" fill="#EAEAFF"/>
<rect x="12.0156" y="74.2539" width="145.208" height="6.70564" fill="#EAEAFF"/>
<rect x="24.9102" y="122.496" width="39.242" height="10" fill="#EAEAFF"/>
<rect x="24.9102" y="174" width="39.242" height="10" fill="#EAEAFF"/>
<rect x="140.262" y="122.496" width="39.24" height="10" fill="#EAEAFF"/>
<rect x="140.262" y="174" width="39.24" height="10" fill="#EAEAFF"/>
<rect x="257.957" y="122.496" width="39.24" height="10" fill="#EAEAFF"/>
<rect x="257.957" y="174" width="39.24" height="10" fill="#EAEAFF"/>
<rect x="252.551" y="193.547" width="31.7006" height="6.70564" fill="#EAEAFF"/>
<rect x="286.645" y="193.547" width="21.1019" height="6.70564" fill="#EAEAFF"/>
<circle opacity="0.1" cx="44.5301" cy="102.991" r="12.4481" fill="#A09FFA"/>
<circle opacity="0.1" cx="44.5301" cy="154.495" r="12.4481" fill="#A09FFA"/>
<rect x="162.531" y="74.2539" width="145.209" height="6.70564" fill="#EAEAFF"/>
<circle opacity="0.1" cx="159.882" cy="102.991" r="12.4481" fill="#A09FFA"/>
<circle opacity="0.1" cx="159.882" cy="154.495" r="12.4481" fill="#A09FFA"/>
<circle opacity="0.1" cx="277.577" cy="102.991" r="12.4481" fill="#A09FFA"/>
<circle opacity="0.1" cx="277.577" cy="154.495" r="12.4481" fill="#A09FFA"/>
<circle cx="28.5073" cy="11.8316" r="3.59719" fill="#EAEAFF"/>
</svg>
