<svg width="44" height="44" viewBox="0 0 44 44" fill="none" xmlns="http://www.w3.org/2000/svg">
<rect x="0.0546875" y="0.203125" width="43.4453" height="43.4453" fill="#A09FFA"/>
<path d="M21.7779 11.7148C20.4813 11.7148 19.3469 12.9061 19.3469 14.2674C19.3469 15.6288 20.4813 16.82 21.7779 16.82C23.0745 16.82 24.2089 15.6288 24.2089 14.2674C24.2089 12.9061 23.0745 11.7148 21.7779 11.7148ZM16.1055 18.5218V20.2235C16.1055 20.2235 19.3469 20.2235 19.3469 23.627V27.0304C19.3469 30.4339 16.1055 30.4339 16.1055 30.4339V32.1356H27.4503V30.4339C27.4503 30.4339 24.2089 30.4339 24.2089 27.0304V20.2235C24.2089 19.3726 23.3986 18.5218 22.5883 18.5218H16.1055Z" fill="white"/>
</svg>
