<svg width="322" height="209" viewBox="0 0 322 209" fill="none" xmlns="http://www.w3.org/2000/svg">
<rect x="1.10156" y="1.12109" width="320.23" height="207.112" fill="white" stroke="#DFDCD8"/>
<line x1="0.835938" y1="32.8516" x2="321.832" y2="32.8516" stroke="#EAEAFF"/>
<rect x="13.1992" y="42.9062" width="295.912" height="157.846" fill="white" stroke="#EAEAFF"/>
<rect x="21.8945" y="58.3125" width="29.6973" height="21.3672" fill="#EAEAFF" stroke="#A09FFA"/>
<path d="M51.4097 58.4023L36.7329 68.2172L22.2773 58.4023" stroke="#A09FFA"/>
<rect x="56.543" y="58.4023" width="80.1246" height="12.2375" fill="#EAEAFF"/>
<rect x="56.543" y="73.9844" width="240.553" height="6.19472" fill="#EAEAFF"/>
<rect opacity="0.1" x="21.3945" y="87.9062" width="275.702" height="11.0129" fill="#A09FFA"/>
<rect opacity="0.1" x="21.3945" y="108.316" width="217.867" height="11.0129" fill="#A09FFA"/>
<rect opacity="0.1" x="21.3945" y="128.727" width="241.763" height="11.0129" fill="#A09FFA"/>
<rect opacity="0.1" x="21.3945" y="149.137" width="103.599" height="11.0129" fill="#A09FFA"/>
<rect opacity="0.1" x="21.3945" y="169.547" width="275.702" height="11.0129" fill="#A09FFA"/>
<circle cx="16.0476" cy="16.5359" r="3.2273" fill="#EAEAFF"/>
<circle cx="24.3015" cy="16.5359" r="3.2273" fill="#EAEAFF"/>
<circle cx="32.5554" cy="16.5359" r="3.2273" fill="#EAEAFF"/>
</svg>
