<svg width="323" height="209" viewBox="0 0 323 209" fill="none" xmlns="http://www.w3.org/2000/svg">
<rect x="1.3125" y="1.12109" width="320.23" height="207.112" fill="white" stroke="#DFDCD8"/>
<rect x="13.918" y="10.9414" width="94.4348" height="12.3556" fill="#EAEAFF"/>
<rect x="14.4219" y="35.5508" width="293.225" height="138.916" fill="white" stroke="#A09FFA"/>
<rect opacity="0.1" x="28.1133" y="49.4062" width="183.462" height="21.9933" fill="#A09FFA"/>
<rect opacity="0.1" x="28.1133" y="104.953" width="183.462" height="21.9933" fill="#A09FFA"/>
<rect x="28.1133" y="77.1797" width="183.462" height="21.9933" fill="#EAEAFF"/>
<rect opacity="0.1" x="219.996" y="49.4062" width="70.5723" height="21.9948" fill="#A09FFA"/>
<rect opacity="0.1" x="219.996" y="104.953" width="70.5723" height="21.9948" fill="#A09FFA"/>
<rect x="219.996" y="77.1797" width="70.5723" height="21.9948" fill="#EAEAFF"/>
<rect x="28.1133" y="141.359" width="117.735" height="21.9959" fill="#A09FFA"/>
<rect x="13.4219" y="34.5508" width="295.225" height="166.202" fill="white" stroke="#EAEAFF"/>
<rect opacity="0.1" x="28.1133" y="49.4062" width="183.462" height="21.9933" fill="#A09FFA"/>
<rect opacity="0.1" x="28.1133" y="104.953" width="183.462" height="21.9933" fill="#A09FFA"/>
<rect x="28.1133" y="77.1797" width="183.462" height="21.9933" fill="#EAEAFF"/>
<rect opacity="0.1" x="219.996" y="49.4062" width="70.5723" height="21.9948" fill="#A09FFA"/>
<rect opacity="0.1" x="219.996" y="104.953" width="70.5723" height="21.9948" fill="#A09FFA"/>
<rect x="219.996" y="77.1797" width="70.5723" height="21.9948" fill="#EAEAFF"/>
<rect x="28.1133" y="141.359" width="117.735" height="21.9959" fill="#A09FFA"/>
</svg>
