<svg width="56" height="56" viewBox="0 0 56 56" fill="none" xmlns="http://www.w3.org/2000/svg">
<rect x="0.888672" y="0.65625" width="54.6914" height="54.6914" fill="#A09FFA"/>
<path d="M11.2857 33.8344V22.1719C10.6974 24.0098 10.377 25.9677 10.377 28.0031C10.377 30.0386 10.6974 31.9965 11.2857 33.8344Z" fill="white"/>
<path d="M39.6915 15.2196C39.6089 15.1546 39.5238 15.0871 39.4386 15.0221V11.6463C39.2308 11.5163 39.0155 11.3988 38.8052 11.2812V14.562C38.7201 14.502 38.635 14.4419 38.5474 14.3869V17.9952C38.4648 17.9202 38.3821 17.8452 38.2945 17.7727V21.9061C38.1944 21.7585 38.0867 21.6135 37.9766 21.471V23.1213L38.2945 22.9363L38.5474 22.7913L39.4386 22.2761L39.6915 22.1311L39.9444 21.9836V19.453C39.8617 19.3505 39.7766 19.2505 39.6915 19.153V15.2196Z" fill="white"/>
<path d="M20.7325 17.7102C20.6474 17.7827 20.5647 17.8577 20.4796 17.9302V14.3894C20.3945 14.4469 20.3094 14.507 20.2268 14.567V11.2812C20.0115 11.4013 19.7986 11.5213 19.5909 11.6463V15.0296C19.5057 15.0946 19.4206 15.1571 19.338 15.2221V19.0504C19.2529 19.143 19.1653 19.238 19.0826 19.333V25.6544C18.9124 26.407 18.8223 27.1922 18.8223 27.9974C18.8223 28.8026 18.9124 29.5877 19.0826 30.3404V36.6618C19.1653 36.7568 19.2529 36.8493 19.338 36.9443V40.7727C19.4206 40.8377 19.5057 40.9002 19.5909 40.9652V44.3485C19.7986 44.4735 20.0115 44.5935 20.2268 44.711V41.4278C20.3094 41.4878 20.3945 41.5478 20.4796 41.6054V38.0646C20.5647 38.1371 20.6474 38.2121 20.7325 38.2846V34.0837C20.8351 34.2313 20.9403 34.3788 21.0504 34.5213V21.4735C20.9403 21.616 20.8351 21.761 20.7325 21.9086V17.7102Z" fill="white"/>
<path d="M42.6823 14.1273C42.4745 13.9348 42.2617 13.7422 42.0464 13.5547V17.5156C41.9613 17.4155 41.8786 17.318 41.791 17.218V20.9213L42.0464 20.7763L42.6823 20.4087L42.9351 20.2611V18.6758C42.85 18.5583 42.7674 18.4383 42.6823 18.3232V14.1273Z" fill="white"/>
<path d="M42.0464 35.2232L41.791 35.0781V38.7789C41.8786 38.6814 41.9613 38.5814 42.0464 38.4814V42.4447C42.2617 42.2572 42.4745 42.0671 42.6823 41.8696V37.6762C42.7674 37.5612 42.85 37.4436 42.9351 37.3236V35.7358L42.6823 35.5907L42.0464 35.2232Z" fill="white"/>
<path d="M36.7 16.602C36.6174 16.5495 36.5348 16.497 36.4472 16.4495V13.2113C36.3646 13.1712 36.2794 13.1337 36.1943 13.0962V10.0831C35.984 10.0031 35.7687 9.93054 35.5584 9.86053V12.8262C35.4733 12.7937 35.3907 12.7587 35.3031 12.7262V15.8368C35.2204 15.7943 35.1378 15.7568 35.0502 15.7168V18.865C34.9476 18.8025 34.8424 18.7375 34.7323 18.6799V21.7606C34.6296 21.6706 34.5245 21.5881 34.4143 21.5056C34.3843 21.4831 34.3567 21.4606 34.3242 21.4406C34.3142 21.4331 34.3066 21.4255 34.2966 21.4205C34.2491 21.3855 34.204 21.3505 34.1564 21.318C34.1164 21.293 34.0763 21.2655 34.0388 21.2405C34.0262 21.2305 34.0137 21.2205 33.9987 21.213C33.9461 21.178 33.8936 21.1455 33.8385 21.1105V18.2324C33.7333 18.1873 33.6257 18.1423 33.5205 18.0998V15.1342C33.4379 15.1067 33.3503 15.0817 33.2677 15.0592V12.1085C33.1826 12.0885 33.0974 12.071 33.0123 12.0535V9.20788C32.802 9.16787 32.5917 9.13037 32.3789 9.09786V11.926C32.2938 11.9085 32.2112 11.896 32.1236 11.881V14.7841C32.0409 14.7666 31.9558 14.7516 31.8707 14.7366V17.5847C31.7655 17.5597 31.6579 17.5372 31.5527 17.5172V20.1278C31.5102 20.1153 31.4701 20.1078 31.4276 20.0978C31.4251 20.0978 31.4226 20.0978 31.4201 20.0953C31.385 20.0878 31.3525 20.0803 31.3199 20.0728C31.2924 20.0653 31.2648 20.0577 31.2373 20.0527C31.1797 20.0402 31.1246 20.0302 31.0671 20.0202L31.0295 20.0127C31.012 20.0077 30.997 20.0052 30.9794 20.0027C30.9619 20.0002 30.9444 19.9952 30.9269 19.9927C30.8893 19.9877 30.8543 19.9802 30.8217 19.9752C30.7942 19.9702 30.7666 19.9652 30.7366 19.9602C30.7116 19.9552 30.689 19.9527 30.6615 19.9502V17.3822C30.5538 17.3722 30.4512 17.3622 30.3435 17.3522V14.5566C30.2584 14.5515 30.1758 14.5465 30.0882 14.5415V11.6859C30.0055 11.6834 29.9204 11.6784 29.8353 11.6759V8.89031C29.7302 8.89031 29.625 8.88281 29.5199 8.88281H29.5174C29.4122 8.88281 29.3071 8.89031 29.1994 8.89031V11.6759C29.1168 11.6784 29.0292 11.6834 28.9465 11.6859V14.5415C28.8614 14.5465 28.7763 14.5515 28.6937 14.5566V17.3522C28.586 17.3622 28.4809 17.3722 28.3757 17.3822V19.9502C28.3507 19.9502 28.3257 19.9552 28.3006 19.9602C28.2706 19.9652 28.2405 19.9702 28.2155 19.9752C28.1629 19.9827 28.1104 19.9927 28.0578 20.0027C28.0378 20.0052 28.0177 20.0102 27.9977 20.0152C27.9301 20.0252 27.8625 20.0402 27.7924 20.0527C27.6873 20.0728 27.5821 20.1003 27.477 20.1278V17.5172C27.3718 17.5372 27.2667 17.5597 27.159 17.5847V14.7366C27.0739 14.7516 26.9913 14.7666 26.9062 14.7841V11.881C26.821 11.896 26.7334 11.911 26.6508 11.926V9.09786C26.438 9.13037 26.2277 9.16787 26.0174 9.20788V12.056C25.9298 12.071 25.8472 12.0885 25.7645 12.1085V15.0567C25.6794 15.0767 25.5943 15.1017 25.5092 15.1292V18.0998C25.4015 18.1423 25.2989 18.1873 25.1912 18.2324V21.113C25.1912 21.113 25.1737 21.1255 25.1637 21.1305C25.1136 21.163 25.0585 21.198 25.006 21.2305C24.9634 21.263 24.9183 21.293 24.8733 21.3205C24.8683 21.323 24.8658 21.3255 24.8608 21.3305C24.8157 21.363 24.7706 21.3955 24.7256 21.4305C24.6905 21.4531 24.653 21.4806 24.6154 21.5081C24.5078 21.5906 24.4001 21.6756 24.2975 21.7606V18.6824C24.1898 18.74 24.0822 18.805 23.9795 18.8675V15.7043C23.8944 15.7418 23.8093 15.7793 23.7267 15.8218V12.7287C23.6415 12.7612 23.5564 12.7937 23.4713 12.8287V9.86303C23.2585 9.93304 23.0457 10.0056 22.8379 10.0831V13.0987C22.7503 13.1362 22.6676 13.1737 22.5825 13.2138V16.4195C22.4974 16.467 22.4123 16.5195 22.3297 16.5695V20.0978C22.222 20.1953 22.1144 20.2953 22.0117 20.3953V35.6036C22.1144 35.7062 22.222 35.8062 22.3297 35.9012V39.4295C22.4123 39.482 22.4974 39.5345 22.5825 39.582V42.7927C22.6676 42.8302 22.7503 42.8702 22.8379 42.9077V45.9184C23.0457 45.9984 23.2585 46.0684 23.4713 46.1409V43.1753C23.5564 43.2103 23.6415 43.2428 23.7267 43.2728V40.1821C23.8093 40.2221 23.8944 40.2622 23.9795 40.2997V37.134C24.0822 37.199 24.1898 37.264 24.2975 37.3215V34.2383C24.3375 34.2733 24.3776 34.3059 24.4176 34.3384C24.4577 34.3684 24.5002 34.4009 24.5378 34.4334C24.5603 34.4509 24.5829 34.4709 24.6079 34.4859L24.6154 34.4934C24.6304 34.5059 24.6455 34.5134 24.663 34.5259C24.7281 34.5784 24.7982 34.6284 24.8683 34.6759C24.8683 34.6759 24.8683 34.6784 24.8733 34.6784C24.9484 34.731 25.0235 34.7835 25.1011 34.8285C25.1311 34.851 25.1612 34.871 25.1912 34.891V37.7666C25.2989 37.8141 25.4015 37.8591 25.5092 37.8991V40.8723C25.5943 40.8998 25.6794 40.9248 25.7645 40.9473V43.8929C25.8472 43.913 25.9298 43.933 26.0174 43.9505V46.7961C26.2277 46.8311 26.438 46.8736 26.6508 46.9061V44.0755C26.7334 44.093 26.821 44.1055 26.9062 44.1205V41.2199C26.9913 41.2374 27.0739 41.2524 27.159 41.2674V38.4193C27.2667 38.4443 27.3718 38.4668 27.477 38.4868V35.8737C27.522 35.8862 27.5671 35.8962 27.6147 35.9062C27.6722 35.9212 27.7323 35.9362 27.7924 35.9487C27.8725 35.9662 27.9476 35.9812 28.0252 35.9937C28.0353 35.9987 28.0478 35.9987 28.0578 36.0012C28.0903 36.0087 28.1254 36.0137 28.1604 36.0187C28.2005 36.0262 28.238 36.0337 28.2756 36.0387C28.2806 36.0412 28.2881 36.0412 28.2956 36.0437C28.3232 36.0487 28.3482 36.0487 28.3757 36.0512V38.6218C28.4809 38.6318 28.586 38.6418 28.6937 38.6518V41.4449C28.7763 41.4499 28.8614 41.4549 28.9465 41.4574V44.318C29.0292 44.3205 29.1168 44.323 29.1994 44.328V47.1112C29.3071 47.1137 29.4097 47.1187 29.5149 47.1187H29.5199C29.625 47.1187 29.7302 47.1137 29.8353 47.1112V44.328C29.9204 44.323 30.0055 44.3205 30.0882 44.318V41.4574C30.1758 41.4574 30.2584 41.4499 30.3435 41.4449V38.6518C30.4512 38.6418 30.5538 38.6318 30.6615 38.6218V36.0512C30.6865 36.0487 30.7065 36.0487 30.7316 36.0437L30.8217 36.0287C30.8718 36.0212 30.9244 36.0112 30.9794 36.0012C31.002 35.9962 31.0245 35.9937 31.0495 35.9862C31.1121 35.9762 31.1747 35.9637 31.2373 35.9512C31.3424 35.9287 31.4501 35.9037 31.5552 35.8762V38.4868C31.6604 38.4668 31.768 38.4443 31.8732 38.4193V41.2649C31.9583 41.2499 32.0434 41.2349 32.1261 41.2174V44.123C32.2137 44.108 32.2963 44.0955 32.3814 44.078V46.9061C32.5942 46.8736 32.8045 46.8336 33.0148 46.7961V43.9505C33.0999 43.933 33.1851 43.913 33.2702 43.8929V40.9448C33.3528 40.9223 33.4404 40.8973 33.523 40.8698V37.9016C33.6282 37.8616 33.7358 37.8166 33.841 37.7691V34.8935C33.861 34.881 33.881 34.8685 33.9011 34.8535C33.9086 34.851 33.9136 34.846 33.9211 34.841C33.9587 34.8185 33.9987 34.7935 34.0363 34.7685C34.0763 34.7385 34.1164 34.7109 34.1589 34.6809C34.209 34.6484 34.2591 34.6134 34.3092 34.5759C34.3467 34.5509 34.3818 34.5234 34.4168 34.4984C34.527 34.4159 34.6321 34.3334 34.7348 34.2433V37.324C34.8449 37.2665 34.9501 37.2015 35.0527 37.1365V40.2872C35.1403 40.2472 35.2229 40.2071 35.3056 40.1671V43.2728C35.3932 43.2428 35.4758 43.2103 35.5609 43.1753V46.1409C35.7712 46.0709 35.9865 46.0009 36.1968 45.9209V42.9077C36.2819 42.8702 36.3671 42.8302 36.4497 42.7927V39.5545C36.5373 39.507 36.6199 39.452 36.7025 39.402V35.9062C36.8127 35.8112 36.9178 35.7112 37.0205 35.6086V32.3279L36.7025 32.1454L36.5699 32.0679L36.4522 31.9979L36.1993 31.8528L35.5634 31.4852L35.3081 31.3402L35.0552 31.1927L34.7373 31.0101L34.4544 30.8451L34.4193 30.9051C34.3417 31.0401 34.2541 31.1727 34.1614 31.3002C34.0638 31.4402 33.9562 31.5778 33.8435 31.7078C33.7433 31.8253 33.6357 31.9403 33.5255 32.0504C33.4454 32.1304 33.3578 32.2104 33.2727 32.2829C33.1901 32.3579 33.1049 32.4254 33.0173 32.493C32.817 32.6505 32.6042 32.7955 32.3839 32.9231C32.2988 32.9731 32.2162 33.0181 32.1286 33.0606C32.0459 33.1056 31.9608 33.1456 31.8757 33.1831C31.7731 33.2331 31.6654 33.2781 31.5578 33.3156C31.4551 33.3582 31.3475 33.3957 31.2398 33.4307C31.1572 33.4557 31.0696 33.4807 30.9819 33.5032C30.8768 33.5307 30.7716 33.5582 30.664 33.5782C30.5588 33.5982 30.4537 33.6182 30.346 33.6307C30.2609 33.6457 30.1758 33.6557 30.0907 33.6632C30.0081 33.6732 29.9229 33.6807 29.8378 33.6832C29.7327 33.6907 29.625 33.6932 29.5199 33.6932C29.4147 33.6932 29.3096 33.6907 29.2019 33.6832C29.1193 33.6807 29.0317 33.6732 28.9491 33.6632C28.8639 33.6557 28.7788 33.6457 28.6962 33.6307C28.586 33.6182 28.4809 33.5982 28.3782 33.5782C28.2681 33.5582 28.1629 33.5307 28.0603 33.5032C27.9702 33.4807 27.8825 33.4532 27.7949 33.4282C27.6898 33.3932 27.5846 33.3556 27.4795 33.3156C27.3718 33.2781 27.2667 33.2306 27.1615 33.1831C27.0764 33.1431 26.9938 33.1056 26.9087 33.0606C26.8235 33.0156 26.7359 32.9706 26.6533 32.9181C26.4305 32.7905 26.2202 32.648 26.0199 32.4905C25.9323 32.4229 25.8472 32.3529 25.767 32.2804C25.6769 32.2054 25.5943 32.1254 25.5117 32.0454C25.4241 31.9553 25.3339 31.8653 25.2538 31.7678C25.2338 31.7453 25.2138 31.7253 25.1937 31.7028C25.0811 31.5728 24.9759 31.4377 24.8758 31.2952C24.7831 31.1677 24.6955 31.0351 24.6179 30.9001C24.5002 30.7026 24.3926 30.4975 24.3 30.2825C24.1673 29.9824 24.0596 29.6673 23.982 29.3398C23.8769 28.9097 23.8218 28.4621 23.8218 28.002C23.8218 27.5419 23.8769 27.0918 23.982 26.6642C24.0596 26.3366 24.1673 26.0215 24.3 25.7215C24.3901 25.5064 24.5002 25.2989 24.6179 25.1014C24.6955 24.9663 24.7831 24.8338 24.8758 24.7063C24.9759 24.5662 25.0811 24.4287 25.1937 24.2987C25.2138 24.2762 25.2338 24.2537 25.2538 24.2312C25.3339 24.1386 25.4241 24.0461 25.5117 23.9561C25.5943 23.8761 25.6769 23.7961 25.767 23.7235C25.8472 23.6485 25.9323 23.5785 26.0199 23.511C26.2202 23.3535 26.4305 23.2109 26.6533 23.0859C26.7359 23.0334 26.8235 22.9884 26.9087 22.9434C26.9938 22.8984 27.0764 22.8584 27.1615 22.8209C27.2667 22.7708 27.3718 22.7258 27.4795 22.6858C27.5846 22.6458 27.6898 22.6108 27.7949 22.5758C27.8825 22.5483 27.9702 22.5233 28.0603 22.5008C28.1629 22.4733 28.2681 22.4458 28.3782 22.4258C28.4809 22.4033 28.586 22.3833 28.6962 22.3733C28.7788 22.3583 28.8639 22.3482 28.9491 22.3407C29.0317 22.3307 29.1193 22.3232 29.2019 22.3207C29.3096 22.3132 29.4147 22.3107 29.5199 22.3107C29.625 22.3107 29.7327 22.3132 29.8378 22.3207C29.9229 22.3232 30.0081 22.3307 30.0907 22.3407C30.1758 22.3482 30.2609 22.3583 30.346 22.3733C30.4537 22.3833 30.5588 22.4033 30.664 22.4258C30.7716 22.4458 30.8768 22.4733 30.9819 22.5008C31.0696 22.5233 31.1572 22.5458 31.2398 22.5733C31.3475 22.6083 31.4551 22.6458 31.5578 22.6858C31.6654 22.7258 31.7731 22.7708 31.8757 22.8209C31.9608 22.8559 32.0459 22.8984 32.1286 22.9434C32.2162 22.9859 32.2988 23.0309 32.3839 23.0809C32.6042 23.2084 32.817 23.351 33.0173 23.5085C33.1049 23.576 33.1901 23.6435 33.2727 23.7185C33.3578 23.7911 33.4454 23.8711 33.5255 23.9536C33.6357 24.0636 33.7433 24.1761 33.8435 24.2937C33.9562 24.4237 34.0638 24.5612 34.1614 24.7013C34.2541 24.8313 34.3417 24.9613 34.4193 25.0963L34.4544 25.1564L34.7373 24.9913L35.0552 24.8113L35.3081 24.6638L35.5634 24.5187L36.1993 24.1511L36.4522 24.0061L36.5699 23.9361L36.7025 23.8586L37.0205 23.676V20.3928C36.9178 20.2928 36.8127 20.1928 36.7025 20.0953V16.602H36.7Z" fill="white"/>
<path d="M45.4967 37.2113L45.1787 37.0263L44.8633 36.8438V39.4243C44.8808 39.3993 44.9008 39.3743 44.9184 39.3493C45.006 39.2293 45.0961 39.1092 45.1812 38.9817C45.2889 38.8267 45.394 38.6716 45.4967 38.5141C45.5042 38.5016 45.5117 38.4916 45.5192 38.4816C45.6143 38.3391 45.7045 38.194 45.7946 38.049L45.8021 38.0415C45.8271 37.999 45.8522 37.9565 45.8772 37.914C45.9498 37.7965 46.0249 37.6764 46.095 37.5564H46.09L45.4967 37.2113Z" fill="white"/>
<path d="M14.1688 16.5781C13.9485 16.8757 13.7382 17.1783 13.5329 17.4883V24.5799C13.4253 25.0875 13.3402 25.6026 13.2801 26.1252C13.21 26.7403 13.1699 27.3655 13.1699 28.0006C13.1699 28.6358 13.21 29.2609 13.2801 29.876C13.3402 30.3986 13.4253 30.9137 13.5329 31.4189V38.5129C13.7382 38.823 13.9485 39.1255 14.1688 39.4231V33.6243C14.249 33.8444 14.3341 34.0619 14.4217 34.277V21.7242C14.3341 21.9393 14.249 22.1568 14.1688 22.3769V16.5781Z" fill="white"/>
<path d="M17.2377 17.223C17.1501 17.3205 17.0674 17.4255 16.9823 17.5281V13.5547C16.767 13.7422 16.5542 13.9348 16.3464 14.1298V18.3357C16.2638 18.4483 16.1762 18.5608 16.0936 18.6783V25.4548C15.9308 26.2775 15.8457 27.1276 15.8457 27.9978C15.8457 28.868 15.9308 29.7182 16.0936 30.5409V37.3174C16.1762 37.4349 16.2638 37.5474 16.3464 37.6599V41.8659C16.5542 42.0609 16.767 42.2534 16.9823 42.441V38.4676C17.0674 38.5701 17.1501 38.6752 17.2377 38.7727V33.8841C17.3178 34.0467 17.4029 34.2092 17.4905 34.3692V21.6264C17.4029 21.7865 17.3178 21.949 17.2377 22.1116V17.223Z" fill="white"/>
<path d="M39.4386 33.728L38.5474 33.2129L38.2945 33.0679L37.9766 32.8828V34.5357C38.0867 34.3931 38.1944 34.2456 38.2945 34.0981V38.2315C38.3821 38.1565 38.4648 38.0839 38.5474 38.0064V41.6197C38.635 41.5622 38.7201 41.5022 38.8052 41.4447V44.7229C39.0155 44.6054 39.2308 44.4853 39.4386 44.3603V40.9821C39.5238 40.9171 39.6089 40.852 39.6915 40.7845V36.8512C39.7766 36.7512 39.8617 36.6511 39.9444 36.5511V34.0206L39.6915 33.873L39.4386 33.728Z" fill="white"/>
<path d="M45.7996 17.9584C45.7045 17.8059 45.6093 17.6559 45.5092 17.5058C45.5042 17.4983 45.5017 17.4933 45.4967 17.4858C45.394 17.3283 45.2889 17.1708 45.1787 17.0157C45.0761 16.8657 44.9734 16.7207 44.8633 16.5781V19.1537L45.1812 18.9736L45.4967 18.7911L46.09 18.4485H46.095C46.0024 18.286 45.9048 18.1285 45.8071 17.9734L45.7996 17.9584Z" fill="white"/>
</svg>
