<svg width="54" height="54" viewBox="0 0 201 201" fill="none" xmlns="http://www.w3.org/2000/svg">
<path d="M5.51239 130.87V69.8672C2.21814 79.4807 0.423828 89.722 0.423828 100.369C0.423828 111.016 2.21814 121.257 5.51239 130.87Z" fill="white"/>
<path d="M164.561 33.5379C164.099 33.1978 163.622 32.8446 163.146 32.5046V14.8471C161.982 14.167 160.776 13.5522 159.599 12.9375V30.0979C159.122 29.784 158.646 29.4701 158.155 29.1824V48.0562C157.693 47.6638 157.23 47.2714 156.739 46.8921V68.5127C156.179 67.741 155.576 66.9824 154.959 66.2368V74.8693L156.739 73.9015L158.155 73.1428L163.146 70.4485L164.561 69.6898L165.977 68.9181V55.6816C165.515 55.1453 165.038 54.6221 164.561 54.112V33.5379V33.5379Z" fill="white"/>
<path d="M58.4106 46.5651C57.934 46.9444 57.4714 47.3368 56.9948 47.7161V29.1954C56.5182 29.4963 56.0416 29.8102 55.579 30.1241V12.9375C54.3734 13.5653 53.1819 14.1931 52.0184 14.8471V32.5438C51.5418 32.8839 51.0652 33.2109 50.6026 33.5509V53.5758C50.1259 54.0597 49.6353 54.5567 49.1727 55.0538V88.119C48.2195 92.0559 47.7148 96.1629 47.7148 100.375C47.7148 104.586 48.2195 108.693 49.1727 112.63V145.695C49.6353 146.192 50.1259 146.676 50.6026 147.173V167.198C51.0652 167.538 51.5418 167.865 52.0184 168.205V185.902C53.1819 186.556 54.3734 187.184 55.579 187.798V170.625C56.0416 170.939 56.5182 171.253 56.9948 171.554V153.033C57.4714 153.412 57.934 153.805 58.4106 154.184V132.21C58.9854 132.982 59.5741 133.754 60.1909 134.499V66.2499C59.5741 66.9954 58.9854 67.754 58.4106 68.5257V46.5651Z" fill="white"/>
<path d="M181.313 27.8116C180.149 26.8045 178.958 25.7974 177.752 24.8164V45.5345C177.275 45.0113 176.813 44.5012 176.322 43.978V63.3489L177.752 62.5903L181.313 60.6676L182.729 59.8959V51.6034C182.252 50.9887 181.789 50.3608 181.313 49.7592V27.8116Z" fill="white"/>
<path d="M177.752 138.157L176.322 137.398V156.756C176.813 156.246 177.275 155.723 177.752 155.2V175.931C178.958 174.95 180.149 173.956 181.313 172.923V150.988C181.789 150.386 182.252 149.772 182.729 149.144V140.838L181.313 140.08L177.752 138.157V138.157Z" fill="white"/>
<path d="M147.818 40.7439C147.356 40.4692 146.893 40.1945 146.402 39.946V23.008C145.94 22.7987 145.463 22.6025 144.987 22.4063V6.64539C143.809 6.22684 142.604 5.84754 141.426 5.48131V20.9937C140.949 20.8237 140.487 20.6405 139.996 20.4705V36.7415C139.534 36.5192 139.071 36.323 138.58 36.1137V52.5809C138.006 52.2539 137.417 51.9138 136.8 51.613V67.7271C136.225 67.2562 135.637 66.8246 135.02 66.3929C134.852 66.2752 134.697 66.1575 134.515 66.0529C134.459 66.0136 134.417 65.9744 134.361 65.9482C134.095 65.7651 133.842 65.582 133.576 65.412C133.352 65.2812 133.127 65.1373 132.917 65.0065C132.847 64.9542 132.777 64.9019 132.693 64.8626C132.398 64.6795 132.104 64.5095 131.796 64.3264V49.2718C131.207 49.0363 130.604 48.8009 130.015 48.5786V33.0662C129.553 32.9223 129.062 32.7915 128.6 32.6738V17.2399C128.123 17.1352 127.646 17.0437 127.17 16.9521V2.06753C125.992 1.85826 124.815 1.66207 123.623 1.49203V16.285C123.146 16.1935 122.684 16.1281 122.193 16.0496V31.235C121.731 31.1435 121.254 31.065 120.777 30.9865V45.8842C120.189 45.7534 119.586 45.6356 118.997 45.531V59.1861C118.759 59.1207 118.535 59.0815 118.296 59.0291C118.282 59.0291 118.268 59.0291 118.254 59.0161C118.058 58.9768 117.876 58.9376 117.693 58.8983C117.539 58.8591 117.385 58.8199 117.231 58.7937C116.908 58.7283 116.6 58.676 116.278 58.6237L116.067 58.5844C115.969 58.5583 115.885 58.5452 115.787 58.5321C115.689 58.519 115.591 58.4929 115.493 58.4798C115.282 58.4536 115.086 58.4144 114.904 58.3882C114.75 58.3621 114.595 58.3359 114.427 58.3098C114.287 58.2836 114.161 58.2705 114.007 58.2574V44.8247C113.404 44.7724 112.829 44.7201 112.226 44.6678V30.0448C111.75 30.0186 111.287 29.9925 110.797 29.9663V15.0294C110.334 15.0163 109.857 14.9902 109.381 14.9771V0.406426C108.792 0.406426 108.203 0.367188 107.614 0.367188H107.6C107.012 0.367188 106.423 0.406426 105.82 0.406426V14.9771C105.358 14.9902 104.867 15.0163 104.404 15.0294V29.9663C103.928 29.9925 103.451 30.0186 102.988 30.0448V44.6678C102.386 44.7201 101.797 44.7724 101.208 44.8247V58.2574C101.068 58.2574 100.928 58.2836 100.788 58.3098C100.619 58.3359 100.451 58.3621 100.311 58.3882C100.017 58.4275 99.7223 58.4798 99.4279 58.5321C99.3157 58.5452 99.2036 58.5714 99.0914 58.5975C98.713 58.6498 98.3345 58.7283 97.942 58.7937C97.3532 58.8983 96.7644 59.0422 96.1757 59.1861V45.531C95.5869 45.6356 94.9982 45.7534 94.3954 45.8842V30.9865C93.9188 31.065 93.4562 31.1435 92.9796 31.235V16.0496C92.5029 16.1281 92.0123 16.2066 91.5497 16.285V1.49203C90.3582 1.66207 89.1807 1.85826 88.0031 2.06753V16.9652C87.5125 17.0437 87.0499 17.1352 86.5873 17.2399V32.6607C86.1107 32.7653 85.6341 32.8961 85.1575 33.04V48.5786C84.5547 48.8009 83.98 49.0363 83.3772 49.2718V64.3395C83.3772 64.3395 83.2791 64.4049 83.223 64.431C82.9426 64.601 82.6342 64.7842 82.3398 64.9542C82.1015 65.1242 81.8492 65.2812 81.5969 65.4251C81.5688 65.4381 81.5548 65.4512 81.5268 65.4774C81.2745 65.6474 81.0221 65.8174 80.7698 66.0006C80.5736 66.1183 80.3633 66.2622 80.153 66.406C79.5502 66.8377 78.9475 67.2824 78.3727 67.7271V51.6261C77.7699 51.9269 77.1672 52.267 76.5924 52.594V36.0483C76.1158 36.2445 75.6392 36.4407 75.1766 36.663V20.4836C74.7 20.6536 74.2234 20.8237 73.7468 21.0068V5.49439C72.5552 5.86061 71.3637 6.23992 70.2002 6.64539V22.4194C69.7096 22.6156 69.247 22.8118 68.7703 23.021V39.7891C68.2937 40.0376 67.8171 40.3123 67.3545 40.5738V59.0291C66.7517 59.5392 66.149 60.0624 65.5742 60.5856V140.136C66.149 140.672 66.7517 141.195 67.3545 141.692V160.147C67.8171 160.422 68.2937 160.697 68.7703 160.945V177.739C69.247 177.936 69.7096 178.145 70.2002 178.341V194.089C71.3637 194.508 72.5552 194.874 73.7468 195.253V179.741C74.2234 179.924 74.7 180.094 75.1766 180.251V164.084C75.6392 164.294 76.1158 164.503 76.5924 164.699V148.14C77.1672 148.48 77.7699 148.821 78.3727 149.121V132.994C78.597 133.177 78.8213 133.347 79.0456 133.517C79.2699 133.674 79.5082 133.844 79.7185 134.014C79.8446 134.106 79.9708 134.211 80.111 134.289L80.153 134.328C80.2371 134.394 80.3212 134.433 80.4194 134.498C80.7838 134.773 81.1763 135.035 81.5688 135.283C81.5688 135.283 81.5688 135.296 81.5969 135.296C82.0174 135.571 82.438 135.846 82.8725 136.081C83.0407 136.199 83.209 136.303 83.3772 136.408V151.45C83.98 151.698 84.5547 151.933 85.1575 152.143V167.694C85.6341 167.838 86.1107 167.969 86.5873 168.087V183.494C87.0499 183.599 87.5125 183.704 88.0031 183.795V198.68C89.1807 198.863 90.3582 199.085 91.5497 199.255V184.449C92.0123 184.541 92.5029 184.606 92.9796 184.685V169.512C93.4562 169.604 93.9188 169.682 94.3954 169.761V154.863C94.9982 154.994 95.5869 155.112 96.1757 155.216V141.548C96.428 141.614 96.6803 141.666 96.9467 141.718C97.2691 141.797 97.6055 141.875 97.942 141.941C98.3905 142.032 98.8111 142.111 99.2456 142.176C99.3017 142.202 99.3718 142.202 99.4279 142.215C99.6101 142.255 99.8064 142.281 100.003 142.307C100.227 142.346 100.437 142.385 100.647 142.412C100.675 142.425 100.718 142.425 100.76 142.438C100.914 142.464 101.054 142.464 101.208 142.477V155.923C101.797 155.975 102.386 156.027 102.988 156.08V170.69C103.451 170.716 103.928 170.742 104.404 170.755V185.718C104.867 185.731 105.358 185.744 105.82 185.77V200.328C106.423 200.341 106.998 200.367 107.586 200.367H107.614C108.203 200.367 108.792 200.341 109.381 200.328V185.77C109.857 185.744 110.334 185.731 110.797 185.718V170.755C111.287 170.755 111.75 170.716 112.226 170.69V156.08C112.829 156.027 113.404 155.975 114.007 155.923V142.477C114.147 142.464 114.259 142.464 114.399 142.438L114.904 142.359C115.184 142.32 115.479 142.268 115.787 142.215C115.913 142.189 116.039 142.176 116.179 142.137C116.53 142.085 116.88 142.019 117.231 141.954C117.82 141.836 118.422 141.705 119.011 141.561V155.216C119.6 155.112 120.203 154.994 120.791 154.863V169.748C121.268 169.669 121.745 169.591 122.207 169.499V184.698C122.698 184.619 123.16 184.554 123.637 184.462V199.255C124.829 199.085 126.006 198.876 127.184 198.68V183.795C127.66 183.704 128.137 183.599 128.614 183.494V168.074C129.076 167.956 129.567 167.825 130.029 167.681V152.156C130.618 151.947 131.221 151.711 131.81 151.463V136.421C131.922 136.356 132.034 136.29 132.146 136.212C132.188 136.199 132.216 136.173 132.258 136.146C132.468 136.029 132.693 135.898 132.903 135.767C133.127 135.61 133.352 135.466 133.59 135.309C133.87 135.139 134.151 134.956 134.431 134.76C134.641 134.629 134.838 134.485 135.034 134.354C135.651 133.923 136.239 133.491 136.814 133.02V149.134C137.431 148.834 138.02 148.494 138.594 148.153V164.634C139.085 164.424 139.548 164.215 140.01 164.006V180.251C140.501 180.094 140.963 179.924 141.44 179.741V195.253C142.618 194.887 143.823 194.521 145.001 194.102V178.341C145.477 178.145 145.954 177.936 146.416 177.739V160.801C146.907 160.553 147.37 160.265 147.832 160.004V141.718C148.449 141.221 149.038 140.698 149.613 140.162V123.001L147.832 122.047L147.089 121.641L146.431 121.275L145.015 120.516L141.454 118.594L140.024 117.835L138.608 117.063L136.828 116.108L135.244 115.245L135.048 115.559C134.613 116.265 134.123 116.959 133.604 117.626C133.057 118.358 132.454 119.078 131.824 119.758C131.263 120.372 130.66 120.974 130.043 121.55C129.595 121.968 129.104 122.387 128.628 122.766C128.165 123.158 127.688 123.512 127.198 123.865C126.076 124.689 124.885 125.447 123.651 126.114C123.175 126.376 122.712 126.611 122.221 126.834C121.759 127.069 121.282 127.278 120.805 127.475C120.231 127.736 119.628 127.972 119.025 128.168C118.45 128.39 117.848 128.586 117.245 128.77C116.782 128.9 116.292 129.031 115.801 129.149C115.212 129.293 114.623 129.437 114.021 129.541C113.432 129.646 112.843 129.75 112.24 129.816C111.764 129.894 111.287 129.947 110.811 129.986C110.348 130.038 109.871 130.077 109.395 130.091C108.806 130.13 108.203 130.143 107.614 130.143C107.026 130.143 106.437 130.13 105.834 130.091C105.372 130.077 104.881 130.038 104.418 129.986C103.942 129.947 103.465 129.894 103.002 129.816C102.386 129.75 101.797 129.646 101.222 129.541C100.605 129.437 100.017 129.293 99.4419 129.149C98.9372 129.031 98.4466 128.887 97.956 128.756C97.3672 128.573 96.7785 128.377 96.1897 128.168C95.5869 127.972 94.9982 127.723 94.4094 127.475C93.9328 127.265 93.4702 127.069 92.9936 126.834C92.517 126.598 92.0263 126.363 91.5637 126.088C90.3161 125.421 89.1386 124.676 88.0172 123.852C87.5265 123.498 87.0499 123.132 86.6013 122.753C86.0967 122.361 85.6341 121.942 85.1715 121.523C84.6809 121.053 84.1762 120.582 83.7276 120.072C83.6155 119.954 83.5033 119.849 83.3912 119.732C82.7604 119.051 82.1716 118.345 81.6109 117.6C81.0922 116.932 80.6016 116.239 80.167 115.533C79.5082 114.5 78.9054 113.427 78.3867 112.302C77.6438 110.733 77.041 109.085 76.6064 107.371C76.0177 105.122 75.7093 102.78 75.7093 100.374C75.7093 97.9671 76.0177 95.6128 76.6064 93.3761C77.041 91.6627 77.6438 90.0147 78.3867 88.4451C78.8914 87.3203 79.5082 86.2347 80.167 85.2014C80.6016 84.4951 81.0922 83.8019 81.6109 83.1348C82.1716 82.4024 82.7604 81.683 83.3912 81.0029C83.5033 80.8851 83.6155 80.7674 83.7276 80.6497C84.1762 80.1658 84.6809 79.6818 85.1715 79.2109C85.6341 78.7924 86.0967 78.3739 86.6013 77.9945C87.0499 77.6022 87.5265 77.2359 88.0172 76.8828C89.1386 76.0588 90.3161 75.3132 91.5637 74.6592C92.0263 74.3846 92.517 74.1491 92.9936 73.9137C93.4702 73.6783 93.9328 73.469 94.4094 73.2728C94.9982 73.0112 95.5869 72.7758 96.1897 72.5665C96.7785 72.3572 97.3672 72.1741 97.956 71.991C98.4466 71.8471 98.9372 71.7163 99.4419 71.5986C100.017 71.4547 100.605 71.3109 101.222 71.2062C101.797 71.0885 102.386 70.9839 103.002 70.9316C103.465 70.8531 103.942 70.8008 104.418 70.7615C104.881 70.7092 105.372 70.67 105.834 70.6569C106.437 70.6177 107.026 70.6046 107.614 70.6046C108.203 70.6046 108.806 70.6177 109.395 70.6569C109.871 70.67 110.348 70.7092 110.811 70.7615C111.287 70.8008 111.764 70.8531 112.24 70.9316C112.843 70.9839 113.432 71.0885 114.021 71.2062C114.623 71.3109 115.212 71.4547 115.801 71.5986C116.292 71.7163 116.782 71.8341 117.245 71.9779C117.848 72.161 118.45 72.3572 119.025 72.5665C119.628 72.7758 120.231 73.0112 120.805 73.2728C121.282 73.4559 121.759 73.6783 122.221 73.9137C122.712 74.1361 123.175 74.3715 123.651 74.6331C124.885 75.3001 126.076 76.0457 127.198 76.8697C127.688 77.2229 128.165 77.576 128.628 77.9684C129.104 78.3477 129.595 78.7662 130.043 79.1979C130.66 79.7734 131.263 80.362 131.824 80.9767C132.454 81.6568 133.057 82.3762 133.604 83.1087C134.123 83.7888 134.613 84.4689 135.048 85.1752L135.244 85.4892L136.828 84.6259L138.608 83.6842L140.024 82.9125L141.454 82.1539L145.015 80.2312L146.431 79.4725L147.089 79.1063L147.832 78.7008L149.613 77.746V60.5725C149.038 60.0493 148.449 59.5262 147.832 59.0161V40.7439H147.818Z" fill="white"/>
<path d="M197.074 148.567L195.294 147.599L193.527 146.645V160.143C193.625 160.012 193.738 159.881 193.836 159.75C194.326 159.122 194.831 158.495 195.308 157.828C195.91 157.017 196.499 156.206 197.074 155.382C197.116 155.316 197.158 155.264 197.2 155.212C197.733 154.466 198.237 153.708 198.742 152.949L198.784 152.91C198.924 152.687 199.064 152.465 199.205 152.243C199.611 151.628 200.032 151 200.424 150.372H200.396L197.074 148.567V148.567Z" fill="white"/>
<path d="M21.6479 40.6289C20.4143 42.1854 19.2368 43.768 18.0873 45.3899V82.4836C17.4845 85.1387 17.0079 87.8331 16.6715 90.5668C16.279 93.7843 16.0547 97.0542 16.0547 100.376C16.0547 103.699 16.279 106.969 16.6715 110.186C17.0079 112.92 17.4845 115.614 18.0873 118.256V155.363C19.2368 156.985 20.4143 158.568 21.6479 160.124V129.792C22.0965 130.943 22.5731 132.081 23.0637 133.206V67.5467C22.5731 68.6715 22.0965 69.8095 21.6479 70.9605V40.6289V40.6289Z" fill="white"/>
<path d="M38.8448 44.0042C38.3542 44.5143 37.8916 45.0636 37.415 45.5999V24.8164C36.2094 25.7974 35.0179 26.8045 33.8544 27.8247V49.8246C33.3918 50.4132 32.9012 51.0017 32.4386 51.6165V87.0622C31.5274 91.3653 31.0508 95.8124 31.0508 100.364C31.0508 104.916 31.5274 109.363 32.4386 113.666V149.112C32.9012 149.726 33.3918 150.315 33.8544 150.904V172.903C35.0179 173.924 36.2094 174.931 37.415 175.912V155.128C37.8916 155.665 38.3542 156.214 38.8448 156.724V131.153C39.2934 132.004 39.77 132.854 40.2607 133.691V67.0373C39.77 67.8744 39.2934 68.7246 38.8448 69.5747V44.0042V44.0042Z" fill="white"/>
<path d="M163.146 130.308L158.155 127.613L156.739 126.855L154.959 125.887V134.532C155.576 133.787 156.179 133.015 156.739 132.243V153.864C157.23 153.472 157.693 153.092 158.155 152.687V171.587C158.646 171.286 159.122 170.972 159.599 170.671V187.819C160.776 187.204 161.982 186.576 163.146 185.922V168.252C163.622 167.911 164.099 167.571 164.561 167.218V146.644C165.038 146.121 165.515 145.598 165.977 145.074V131.838L164.561 131.066L163.146 130.308Z" fill="white"/>
<path d="M198.77 47.8293C198.237 47.0315 197.705 46.2467 197.144 45.4619C197.116 45.4227 197.102 45.3965 197.074 45.3573C196.499 44.5333 195.91 43.7092 195.294 42.8983C194.719 42.1135 194.144 41.3549 193.527 40.6094V54.0814L195.308 53.1396L197.074 52.1848L200.396 50.3929H200.424C199.906 49.5427 199.359 48.7187 198.812 47.9078L198.77 47.8293V47.8293Z" fill="white"/>
</svg>
