<svg width="16" height="17" viewBox="0 0 16 17" fill="none" xmlns="http://www.w3.org/2000/svg">
<circle cx="7.96203" cy="8.54992" r="7.82335" fill="#F15A29"/>
<path d="M7.96159 4.65625C7.44225 4.65625 6.98782 5.11068 6.98782 5.63002C6.98782 6.14937 7.44225 6.6038 7.96159 6.6038C8.48094 6.6038 8.93537 6.14937 8.93537 5.63002C8.93537 5.11068 8.48094 4.65625 7.96159 4.65625ZM5.68945 7.25298V7.90216C5.68945 7.90216 6.98782 7.90216 6.98782 9.20053V10.4989C6.98782 11.7973 5.68945 11.7973 5.68945 11.7973V12.4464H10.2337V11.7973C10.2337 11.7973 8.93537 11.7973 8.93537 10.4989V7.90216C8.93537 7.57757 8.61077 7.25298 8.28618 7.25298H5.68945Z" fill="white"/>
</svg>
