<svg width="54" height="54" viewBox="0 0 60 60" fill="none" xmlns="http://www.w3.org/2000/svg">
<path d="M60 30C60 32.5179 56.0256 34.4825 55.4046 36.8084C54.761 39.2134 57.2111 42.8942 55.9917 45.0056C54.761 47.1396 50.335 46.8574 48.5962 48.5962C46.8574 50.335 47.1396 54.7497 45.0056 55.9917C42.9055 57.2111 39.2134 54.761 36.8084 55.4046C34.4825 56.0256 32.5179 60 30 60C27.4821 60 25.5175 56.0256 23.1916 55.4046C20.8656 54.7836 17.1058 57.2111 14.9944 55.9917C12.8829 54.7723 13.1426 50.335 11.4038 48.5962C9.66503 46.8574 5.25028 47.1396 4.00828 45.0056C2.76628 42.8717 5.23899 39.2134 4.59541 36.8084C3.97441 34.4825 0 32.5179 0 30C0 27.4821 3.97441 25.5175 4.59541 23.1916C5.23899 20.7866 2.78886 17.1058 4.00828 14.9944C5.23899 12.8604 9.66503 13.1426 11.4038 11.4038C13.1426 9.66504 12.8604 5.25028 14.9944 4.00828C17.0945 2.78886 20.7866 5.23899 23.1916 4.59541C25.5965 3.95183 27.4708 0 29.9887 0C32.5066 0 34.4712 3.97441 36.7971 4.59541C39.2021 5.23899 42.8829 2.78886 44.9944 4.00828C47.1283 5.23899 46.8461 9.66504 48.5849 11.4038C50.3237 13.1426 54.7384 12.8604 55.9804 14.9944C57.1998 17.0945 54.7497 20.7866 55.3933 23.1916C56.0143 25.5175 59.9887 27.4821 59.9887 30H60Z" fill="#A09FFA"/>
<path d="M30.9185 14.9848L30.0717 14.1719L29.2248 14.9848C24.2455 19.7722 24.6294 27.5629 30.0717 31.8873C35.5026 27.5629 35.8978 19.7722 30.9185 14.9848Z" fill="black"/>
<path d="M15.7699 31.1957L15.7925 30.0327L16.9555 30.0101C23.8655 29.8747 29.0932 35.6556 28.3141 42.5544C21.4154 43.3334 15.6344 38.1057 15.7699 31.1957Z" fill="black"/>
<path d="M44.1564 31.1957L44.1338 30.0327L42.9708 30.0101C36.0608 29.8747 30.8331 35.6556 31.6122 42.5544C38.5109 43.3334 44.2919 38.1057 44.1564 31.1957Z" fill="black"/>
</svg>
