<svg width="11" height="7" viewBox="0 0 11 7" fill="none" xmlns="http://www.w3.org/2000/svg">
<path fill-rule="evenodd" clip-rule="evenodd" d="M1.10724 1.10998C1.29477 0.922505 1.54908 0.817189 1.81424 0.817189C2.0794 0.817189 2.33371 0.922505 2.52124 1.10998L5.81424 4.40298L9.10724 1.10998C9.19949 1.01447 9.30983 0.938283 9.43184 0.885874C9.55384 0.833465 9.68506 0.805879 9.81784 0.804725C9.95062 0.803571 10.0823 0.828873 10.2052 0.879154C10.3281 0.929435 10.4397 1.00369 10.5336 1.09758C10.6275 1.19147 10.7018 1.30313 10.7521 1.42602C10.8023 1.54892 10.8276 1.6806 10.8265 1.81338C10.8253 1.94616 10.7978 2.07738 10.7453 2.19938C10.6929 2.32138 10.6167 2.43173 10.5212 2.52398L6.52124 6.52398C6.33371 6.71145 6.0794 6.81676 5.81424 6.81676C5.54908 6.81676 5.29477 6.71145 5.10724 6.52398L1.10724 2.52398C0.919769 2.33645 0.814453 2.08214 0.814453 1.81698C0.814453 1.55181 0.919769 1.2975 1.10724 1.10998Z" fill="#A09FFA"/>
</svg>
