<?xml version="1.0" encoding="UTF-8"?><svg id="Layer_1" xmlns="http://www.w3.org/2000/svg" viewBox="0 0 520.47 152.91"><path d="M3.63,99.78V53.14c-2.35,7.35-3.63,15.18-3.63,23.32s1.28,15.97,3.63,23.32Z"/><path d="M117.09,25.36c-.33-.26-.67-.53-1.01-.79V11.07c-.83-.52-1.69-.99-2.53-1.46v13.12c-.34-.24-.68-.48-1.03-.7v14.43c-.33-.3-.66-.6-1.01-.89v16.53c-.4-.59-.83-1.17-1.27-1.74v6.6l1.27-.74,1.01-.58,3.56-2.06,1.01-.58,1.01-.59v-10.12c-.33-.41-.67-.81-1.01-1.2v-15.73Z"/><path d="M41.37,35.32c-.34,.29-.67,.59-1.01,.88v-14.16c-.34,.23-.68,.47-1.01,.71V9.61c-.86,.48-1.71,.96-2.54,1.46v13.53c-.34,.26-.68,.51-1.01,.77v15.31c-.34,.37-.69,.75-1.02,1.13v25.28c-.68,3.01-1.04,6.15-1.04,9.37s.36,6.36,1.04,9.37v25.28c.33,.38,.68,.75,1.02,1.13v15.31c.33,.26,.67,.51,1.01,.77v13.53c.83,.5,1.68,.98,2.54,1.45v-13.13c.33,.24,.67,.48,1.01,.71v-14.16c.34,.29,.67,.59,1.01,.88v-16.8c.41,.59,.83,1.18,1.27,1.75V50.37c-.44,.57-.86,1.15-1.27,1.74v-16.79Z"/><path d="M129.04,20.98c-.83-.77-1.68-1.54-2.54-2.29v15.84c-.34-.4-.67-.79-1.02-1.19v14.81l1.02-.58,2.54-1.47,1.01-.59v-6.34c-.34-.47-.67-.95-1.01-1.41V20.98Z"/><path d="M126.5,105.35l-1.02-.58v14.8c.35-.39,.68-.79,1.02-1.19v15.85c.86-.75,1.71-1.51,2.54-2.3v-16.77c.34-.46,.67-.93,1.01-1.41v-6.35l-1.01-.58-2.54-1.47Z"/><path d="M105.15,30.87c-.33-.21-.66-.42-1.01-.61v-12.95c-.33-.16-.67-.31-1.01-.46V4.8c-.84-.32-1.7-.61-2.54-.89V15.77c-.34-.13-.67-.27-1.02-.4v12.44c-.33-.17-.66-.32-1.01-.48v12.59c-.41-.25-.83-.51-1.27-.74v12.32c-.41-.36-.83-.69-1.27-1.02-.12-.09-.23-.18-.36-.26-.04-.03-.07-.06-.11-.08-.19-.14-.37-.28-.56-.41-.16-.1-.32-.21-.47-.31-.05-.04-.1-.08-.16-.11-.21-.14-.42-.27-.64-.41v-11.51c-.42-.18-.85-.36-1.27-.53v-11.86c-.33-.11-.68-.21-1.01-.3V12.9c-.34-.08-.68-.15-1.02-.22V1.3c-.84-.16-1.68-.31-2.53-.44V12.17c-.34-.07-.67-.12-1.02-.18v11.61c-.33-.07-.67-.13-1.01-.19v11.39c-.42-.1-.85-.19-1.27-.27v10.44c-.17-.05-.33-.08-.5-.12-.01,0-.02,0-.03-.01h0c-.14-.03-.27-.06-.4-.09-.11-.03-.22-.06-.33-.08-.23-.05-.45-.09-.68-.13l-.15-.03c-.07-.02-.13-.03-.2-.04-.07-.01-.14-.03-.21-.04-.15-.02-.29-.05-.42-.07-.11-.02-.22-.04-.34-.06-.1-.02-.19-.03-.3-.04v-10.27c-.43-.04-.84-.08-1.27-.12v-11.18c-.34-.02-.67-.04-1.02-.06V11.21c-.33-.01-.67-.03-1.01-.04V.03c-.42,0-.84-.03-1.26-.03h-.01c-.42,0-.84,.03-1.27,.03V11.17c-.33,.01-.68,.03-1.01,.04v11.42c-.34,.02-.68,.04-1.01,.06v11.18c-.43,.04-.85,.08-1.27,.12v10.27c-.1,0-.2,.02-.3,.04-.12,.02-.24,.04-.34,.06-.21,.03-.42,.07-.63,.11-.08,.01-.16,.03-.24,.05-.27,.04-.54,.1-.82,.15-.42,.08-.84,.19-1.26,.3v-10.44c-.42,.08-.84,.17-1.27,.27v-11.39c-.34,.06-.67,.12-1.01,.19V11.99c-.34,.06-.69,.12-1.02,.18V.86c-.85,.13-1.69,.28-2.53,.44V12.69c-.35,.06-.68,.13-1.01,.21v11.79c-.34,.08-.68,.18-1.02,.29v11.88c-.43,.17-.84,.35-1.27,.53v11.52s-.07,.05-.11,.07c-.2,.13-.42,.27-.63,.4-.17,.13-.35,.25-.53,.36-.02,.01-.03,.02-.05,.04-.18,.13-.36,.26-.54,.4-.14,.09-.29,.2-.44,.31-.43,.33-.86,.67-1.27,1.01v-12.31c-.43,.23-.86,.49-1.27,.74v-12.65c-.34,.15-.68,.3-1.01,.47V15.38c-.34,.13-.68,.26-1.02,.4V3.92c-.85,.28-1.7,.57-2.53,.88v12.06c-.35,.15-.68,.3-1.02,.46v12.82c-.34,.19-.68,.4-1.01,.6v14.11c-.43,.39-.86,.79-1.27,1.19v60.82c.41,.41,.84,.81,1.27,1.19v14.11c.33,.21,.67,.42,1.01,.61v12.84c.34,.15,.67,.31,1.02,.46v12.04c.83,.32,1.68,.6,2.53,.89v-11.86c.34,.14,.68,.27,1.02,.39v-12.36c.33,.16,.67,.32,1.01,.47v-12.66c.41,.26,.84,.52,1.27,.75v-12.33c.16,.14,.32,.27,.48,.4,.16,.12,.33,.25,.48,.38,.09,.07,.18,.15,.28,.21l.03,.03c.06,.05,.12,.08,.19,.13,.26,.21,.54,.41,.82,.6,0,0,0,.01,.02,.01,.3,.21,.6,.42,.91,.6,.12,.09,.24,.17,.36,.25v11.5c.43,.19,.84,.37,1.27,.53v11.89c.34,.11,.68,.21,1.02,.3v11.78c.33,.08,.66,.16,1.01,.23v11.38c.84,.14,1.68,.31,2.53,.44v-11.32c.33,.07,.68,.12,1.02,.18v-11.6c.34,.07,.67,.13,1.01,.19v-11.39c.43,.1,.85,.19,1.27,.27v-10.45c.18,.05,.36,.09,.55,.13,.23,.06,.47,.12,.71,.17,.32,.07,.62,.13,.93,.18,.04,.02,.09,.02,.13,.03,.13,.03,.27,.05,.41,.07,.16,.03,.31,.06,.46,.08,.02,.01,.05,.01,.08,.02,.11,.02,.21,.02,.32,.03v10.28c.42,.04,.84,.08,1.27,.12v11.17c.33,.02,.67,.04,1.01,.05v11.44c.33,.01,.68,.02,1.01,.04v11.13c.43,.01,.84,.03,1.26,.03h.02c.42,0,.84-.02,1.26-.03v-11.13c.34-.02,.68-.03,1.01-.04v-11.44c.35,0,.68-.03,1.02-.05v-11.17c.43-.04,.84-.08,1.27-.12v-10.28c.1-.01,.18-.01,.28-.03l.36-.06c.2-.03,.41-.07,.63-.11,.09-.02,.18-.03,.28-.06,.25-.04,.5-.09,.75-.14,.42-.09,.85-.19,1.27-.3v10.44c.42-.08,.85-.17,1.27-.27v11.38c.34-.06,.68-.12,1.01-.19v11.62c.35-.06,.68-.11,1.02-.18v11.31c.85-.13,1.69-.29,2.53-.44v-11.38c.34-.07,.68-.15,1.02-.23v-11.79c.33-.09,.68-.19,1.01-.3v-11.87c.42-.16,.85-.34,1.27-.53v-11.5c.08-.05,.16-.1,.24-.16,.03-.01,.05-.03,.08-.05,.15-.09,.31-.19,.46-.29,.16-.12,.32-.23,.49-.35,.2-.13,.4-.27,.6-.42,.15-.1,.29-.21,.43-.31,.44-.33,.86-.66,1.27-1.02v12.32c.44-.23,.86-.49,1.27-.75v12.6c.35-.16,.68-.32,1.01-.48v12.42c.35-.12,.68-.25,1.02-.39v11.86c.84-.28,1.7-.56,2.54-.88v-12.05c.34-.15,.68-.31,1.01-.46v-12.95c.35-.19,.68-.41,1.01-.61v-13.98c.44-.38,.86-.78,1.27-1.19v-13.12l-1.27-.73-.53-.31h0l-.47-.28-1.01-.58-2.54-1.47-1.02-.58-1.01-.59-1.27-.73-1.13-.66-.14,.24c-.31,.54-.66,1.07-1.03,1.58-.39,.56-.82,1.11-1.27,1.63-.4,.47-.83,.93-1.27,1.37-.32,.32-.67,.64-1.01,.93-.33,.3-.67,.57-1.02,.84-.8,.63-1.65,1.21-2.53,1.72-.34,.2-.67,.38-1.02,.55-.33,.18-.67,.34-1.01,.49-.41,.2-.84,.38-1.27,.53-.41,.17-.84,.32-1.27,.46-.33,.1-.68,.2-1.03,.29-.42,.11-.84,.22-1.27,.3-.42,.08-.84,.16-1.27,.21-.34,.06-.68,.1-1.02,.13-.33,.04-.67,.07-1.01,.08-.42,.03-.85,.04-1.27,.04s-.84-.01-1.27-.04c-.33-.01-.68-.04-1.01-.08-.34-.03-.68-.07-1.01-.13-.44-.05-.86-.13-1.27-.21-.44-.08-.86-.19-1.27-.3-.36-.09-.71-.2-1.06-.3-.42-.14-.84-.29-1.26-.45-.43-.15-.85-.34-1.27-.53-.34-.16-.67-.31-1.01-.49-.34-.18-.69-.36-1.02-.57-.89-.51-1.73-1.08-2.53-1.71-.35-.27-.69-.55-1.01-.84-.36-.3-.69-.62-1.02-.94-.35-.36-.71-.72-1.03-1.11-.08-.09-.16-.17-.24-.26-.45-.52-.87-1.06-1.27-1.63-.37-.51-.72-1.04-1.03-1.58-.47-.79-.9-1.61-1.27-2.47-.53-1.2-.96-2.46-1.27-3.77-.42-1.72-.64-3.51-.64-5.35s.22-3.64,.64-5.35c.31-1.31,.74-2.57,1.27-3.77,.36-.86,.8-1.69,1.27-2.48,.31-.54,.66-1.07,1.03-1.58,.4-.56,.82-1.11,1.27-1.63,.08-.09,.16-.18,.24-.27,.32-.37,.68-.74,1.03-1.1,.33-.32,.66-.64,1.02-.93,.32-.3,.66-.58,1.01-.85,.8-.63,1.64-1.2,2.53-1.7,.33-.21,.68-.39,1.02-.57,.34-.18,.67-.34,1.01-.49,.42-.2,.84-.38,1.27-.54,.42-.16,.84-.3,1.26-.44,.35-.11,.7-.21,1.06-.3,.41-.11,.83-.22,1.27-.3,.41-.09,.83-.17,1.27-.21,.33-.06,.67-.1,1.01-.13,.33-.04,.68-.07,1.01-.08,.43-.03,.85-.04,1.27-.04s.85,.01,1.27,.04c.34,.01,.68,.04,1.01,.08,.34,.03,.68,.07,1.02,.13,.43,.04,.85,.12,1.27,.21,.43,.08,.85,.19,1.27,.3,.35,.09,.7,.18,1.03,.29,.43,.14,.86,.29,1.27,.45,.43,.16,.86,.34,1.27,.54,.34,.14,.68,.31,1.01,.49,.35,.17,.68,.35,1.02,.55,.88,.51,1.73,1.08,2.53,1.71,.35,.27,.69,.54,1.02,.84,.34,.29,.69,.61,1.01,.94,.44,.44,.87,.89,1.27,1.36,.45,.52,.88,1.07,1.27,1.63,.37,.52,.72,1.04,1.03,1.58l.14,.24,1.13-.66,1.27-.72,1.01-.59,1.02-.58,2.54-1.47,1.01-.58,.47-.28h0l.53-.31,1.27-.73v-13.13c-.41-.4-.83-.8-1.27-1.19v-13.97Z"/><path d="M140.28,113.31l-1.27-.74-1.26-.73v10.32c.07-.1,.15-.2,.22-.3,.35-.48,.71-.96,1.05-1.47h0c.43-.62,.85-1.24,1.26-1.87,.03-.05,.06-.09,.09-.13,.38-.57,.74-1.15,1.1-1.73l.03-.03c.1-.17,.2-.34,.3-.51,.29-.47,.59-.95,.87-1.43h-.02l-2.37-1.38Z"/><path d="M15.14,30.78c-.88,1.19-1.72,2.4-2.54,3.64v28.36c-.43,2.03-.77,4.09-1.01,6.18-.28,2.46-.44,4.96-.44,7.5s.16,5.04,.44,7.5c.24,2.09,.58,4.15,1.01,6.17v28.37c.82,1.24,1.66,2.45,2.54,3.64v-23.19c.32,.88,.66,1.75,1.01,2.61V51.36c-.35,.86-.69,1.73-1.01,2.61V30.78Z"/><path d="M27.41,33.37c-.35,.39-.68,.81-1.02,1.22v-15.89c-.86,.75-1.71,1.52-2.54,2.3v16.82c-.33,.45-.68,.9-1.01,1.37v27.1c-.65,3.29-.99,6.69-.99,10.17s.34,6.88,.99,10.17v27.1c.33,.47,.68,.92,1.01,1.37v16.82c.83,.78,1.68,1.55,2.54,2.3v-15.89c.34,.41,.67,.83,1.02,1.22v-19.55c.32,.65,.66,1.3,1.01,1.94V50.98c-.35,.64-.69,1.29-1.01,1.94v-19.55Z"/><path d="M116.08,99.34l-3.56-2.06-1.01-.58-1.27-.74v6.61c.44-.57,.87-1.16,1.27-1.75v16.53c.35-.3,.68-.59,1.01-.9v14.45c.35-.23,.69-.47,1.03-.7v13.11c.84-.47,1.7-.95,2.53-1.45v-13.51c.34-.26,.68-.52,1.01-.79v-15.73c.34-.4,.68-.8,1.01-1.2v-10.12l-1.01-.59-1.01-.58Z"/><path d="M141.49,36.28c-.38-.61-.76-1.21-1.16-1.81-.02-.03-.03-.05-.05-.08-.41-.63-.83-1.26-1.27-1.88h0c-.41-.6-.82-1.18-1.26-1.75v10.3l1.27-.72,1.26-.73,2.37-1.37h.02c-.37-.65-.76-1.28-1.15-1.9l-.03-.06Z"/><polygon points="507.94 49.05 510 49.05 510 54.46 510.99 54.46 510.99 49.05 513.04 49.05 513.04 48.17 507.94 48.17 507.94 49.05"/><path d="M519.29,48.17l-2.08,5.19-2.08-5.19h-1.21v6.29h.98v-2.87c0-.57,0-1.28-.06-1.87l1.88,4.75h.94l1.9-4.64c-.07,.53-.09,1.19-.09,1.77v2.87h.99v-6.29h-1.18Z"/><path d="M203.17,53.85c9.56,0,13.27,4.8,15.17,9.49h8.48c-1.85-8.27-8.85-16.24-23.54-16.24-16.43,0-26.35,12.02-26.35,26.23s8.95,26.04,25.91,26.04c14.64,0,21.1-7.38,23.83-16.04h-8.37c-2.54,5.56-6.17,9.31-15.06,9.31-11.22,0-17.54-8.76-17.54-19.62s6.47-19.17,17.47-19.17Z"/><path d="M270.85,76.62c0,11.97-5.26,15.96-13.83,15.96-7.27,0-14.48-3.4-14.48-15.96v-28.47h-8.29v28.98c0,15.61,8.81,22.23,22.5,22.23s22.4-6.66,22.4-22.71v-28.5h-8.29v28.47Z"/><path d="M330.62,61.93c0-8.84-6.82-13.78-17.4-13.78h-24.75v50.15h8.23v-21.07h12.93c8.44,0,12.51,2.28,12.51,9.13v11.94h7.19c0-2.22-.02-6.31-.02-10.06v-2.28c0-8.83-4.75-11.21-7.75-12.1,5.87-1.59,9.06-5.77,9.06-11.94Zm-19.41,8.71h-14.51v-15.89h14.73c7.12,0,10.69,2.62,10.69,7.74,0,5.56-3.54,8.15-10.91,8.15Z"/><path d="M372.96,71.52c3.9-1.22,7.98-4.53,7.98-10.69,0-7.63-5.52-12.68-16.57-12.68h-25.02v50.15h25.23c10.34,0,18.35-4.85,18.35-14.74,0-7.4-5.37-10.76-9.98-12.05Zm-25.4-16.81h15.09c5.44,0,9.65,1.68,9.65,6.97,0,4.43-3.08,6.91-9.88,6.91h-14.86v-13.88Zm15.43,37.07h-15.43v-16.66h14.97c7.37,0,11.64,2.8,11.64,8.35,0,6.62-5.56,8.32-11.18,8.32Z"/><path d="M414.78,47.09c-16.31,0-26.66,12.09-26.66,25.97,0,14.7,10.01,26.3,26.37,26.3,17.16,0,26.67-12.19,26.67-26.3s-10.01-25.98-26.38-25.98Zm.06,45.49c-11.79,0-17.95-9.22-17.95-19.69s6.26-19,17.49-19c11.98,0,18,9.3,18,19.33s-5.79,19.36-17.54,19.36Z"/><path d="M488.36,65.49c0,8.17-.07,16.44,.39,22.66h-.14c-2.91-5.35-16.54-22.91-28.49-40h-9.89v50.15h7.7v-19.38c0-8.88,0-15.99-.39-22.39h.14c3.45,5.81,22.25,32.35,29.06,41.76h9.32V48.15h-7.7v17.34Z"/></svg>